<svg xmlns="http://www.w3.org/2000/svg" xmlns:xlink="http://www.w3.org/1999/xlink" version="1.1" preserveAspectRatio="xMidYMid" width="255" height="360"><rect id="backgroundrect" width="100%" height="100%" x="0" y="0" fill="none" stroke="none"/>
    
<g class="currentLayer" style=""><title>Layer 1</title><g id="svg_1" class="">
        <path d="M127.39868123599815,360.087912 L23.216527535998154,331.166242 L4.899815381209649e-8,70.7657143 L255.10962623599815,70.7657143 L231.86848323599816,331.125451 L127.39868123599815,360.087912 L127.39868123599815,360.087912 z" fill="#264DE4" id="svg_2"/>
        <path d="M211.97151623599817,314.546637 L231.83261523599816,92.0573187 L127.55481323599815,92.0573187 L127.55481323599815,337.950242 L211.97151623599817,314.546637 L211.97151623599817,314.546637 z" fill="#2965F1" id="svg_3"/>
        <path d="M53.22338463599815,188.636132 L56.08580223599815,220.572835 L127.55481323599815,220.572835 L127.55481323599815,188.636132 L53.22338463599815,188.636132 L53.22338463599815,188.636132 z" fill="#EBEBEB" id="svg_4"/>
        <path d="M47.471824235998156,123.994725 L50.37503303599815,155.932132 L127.55481323599815,155.932132 L127.55481323599815,123.994725 L47.471824235998156,123.994725 L47.471824235998156,123.994725 z" fill="#EBEBEB" id="svg_5"/>
        <path d="M127.55481323599815,271.580132 L127.41485723599816,271.617407 L91.84632973599815,262.013187 L89.57257143599816,236.54189 L57.51279123599815,236.54189 L61.98716483599815,286.687648 L127.40782423599815,304.848879 L127.55481323599815,304.808088 L127.55481323599815,271.580132 L127.55481323599815,271.580132 z" fill="#EBEBEB" id="svg_6"/>
        <path d="M60.038329735998154,0 L98.71964843599815,0 L98.71964843599815,16.1758242 L76.21415393599816,16.1758242 L76.21415393599816,32.3516484 L98.71964843599815,32.3516484 L98.71964843599815,48.5274725 L60.038329735998154,48.5274725 L60.038329735998154,0 L60.038329735998154,0 z" fill="#000000" id="svg_7"/>
        <path d="M106.45591223599816,0 L145.13723123599814,0 L145.13723123599814,14.0659341 L122.63173623599815,14.0659341 L122.63173623599815,16.8791209 L145.13723123599814,16.8791209 L145.13723123599814,49.2307692 L106.45591223599816,49.2307692 L106.45591223599816,34.4615385 L128.96140623599814,34.4615385 L128.96140623599814,31.6483516 L106.45591223599816,31.6483516 L106.45591223599816,0 L106.45591223599816,0 z" fill="#000000" id="svg_8"/>
        <path d="M152.87349423599815,0 L191.55481323599815,0 L191.55481323599815,14.0659341 L169.04931823599816,14.0659341 L169.04931823599816,16.8791209 L191.55481323599815,16.8791209 L191.55481323599815,49.2307692 L152.87349423599815,49.2307692 L152.87349423599815,34.4615385 L175.37898923599815,34.4615385 L175.37898923599815,31.6483516 L152.87349423599815,31.6483516 L152.87349423599815,0 L152.87349423599815,0 z" fill="#000000" id="svg_9"/>
        <path d="M201.68158223599815,188.636132 L207.44720923599814,123.994725 L127.44439523599816,123.994725 L127.44439523599816,155.932132 L172.44694523599816,155.932132 L169.54092323599815,188.636132 L127.44439523599816,188.636132 L127.44439523599816,220.572835 L166.77134023599817,220.572835 L163.06426423599817,261.992791 L127.44439523599816,271.606857 L127.44439523599816,304.833407 L192.91709923599817,286.687648 L193.39745023599815,281.291956 L200.90232923599817,197.212132 L201.68158223599815,188.636132 L201.68158223599815,188.636132 z" fill="#FFFFFF" id="svg_10"/>
    </g></g></svg>