<?xml version="1.0" encoding="utf-8"?>
<!-- Generator: Adobe Illustrator 25.3.0, SVG Export Plug-In . SVG Version: 6.00 Build 0)  -->
<svg version="1.1" id="katman_1" xmlns="http://www.w3.org/2000/svg" xmlns:xlink="http://www.w3.org/1999/xlink" x="0px" y="0px"
	 viewBox="0 0 70 70" style="enable-background:new 0 0 70 70;" xml:space="preserve">
<style type="text/css">
	.st0{fill:url(#SVGID_1_);}
	.st1{fill:url(#SVGID_2_);}
	.st2{fill:url(#SVGID_3_);}
	.st3{fill:url(#SVGID_4_);}
	.st4{fill:url(#SVGID_5_);}
	.st5{fill:#FFFFFF;}
</style>
<symbol  id="datagrip" viewBox="-35 -35 70 70">
	
		<linearGradient id="SVGID_1_" gradientUnits="userSpaceOnUse" x1="-7.4947" y1="-43.4836" x2="-5.4477" y2="-25.6626" gradientTransform="matrix(1 0 0 1 35 35)">
		<stop  offset="0.16" style="stop-color:#21D789"/>
		<stop  offset="0.54" style="stop-color:#419FBC"/>
		<stop  offset="1" style="stop-color:#6B57FF"/>
	</linearGradient>
	<path class="st0" d="M30.6-24.1L35,4.5l-8.2,4.8L21.5-8.5L30.6-24.1z"/>
	
		<linearGradient id="SVGID_2_" gradientUnits="userSpaceOnUse" x1="-24.495" y1="-51.3011" x2="-19.318" y2="-64.5461" gradientTransform="matrix(1 0 0 1 35 35)">
		<stop  offset="0" style="stop-color:#6B57FF"/>
		<stop  offset="0.952" style="stop-color:#21D789"/>
	</linearGradient>
	<path class="st1" d="M30.6-24.1L5.5-35l-7,5.8L10-18L30.6-24.1z"/>
	
		<linearGradient id="SVGID_3_" gradientUnits="userSpaceOnUse" x1="-53.1438" y1="-34.6592" x2="-48.1158" y2="-12.7512" gradientTransform="matrix(1 0 0 1 35 35)">
		<stop  offset="0" style="stop-color:#6B57FF"/>
		<stop  offset="2.200000e-02" style="stop-color:#685CFB"/>
		<stop  offset="0.281" style="stop-color:#4A91CA"/>
		<stop  offset="0.506" style="stop-color:#34B7A7"/>
		<stop  offset="0.685" style="stop-color:#26CE91"/>
		<stop  offset="0.797" style="stop-color:#21D789"/>
	</linearGradient>
	<path class="st2" d="M12.3,35L-24-4.5l-10.4,32L12.3,35z"/>
	
		<linearGradient id="SVGID_4_" gradientUnits="userSpaceOnUse" x1="-64.2844" y1="-37.4472" x2="-2.9444" y2="-3.5802" gradientTransform="matrix(1 0 0 1 35 35)">
		<stop  offset="7.500000e-02" style="stop-color:#21D789"/>
		<stop  offset="0.887" style="stop-color:#6B57FF"/>
	</linearGradient>
	<path class="st3" d="M19.5,10L-35-2.7L12.3,35L19.5,10z"/>
	
		<linearGradient id="SVGID_5_" gradientUnits="userSpaceOnUse" x1="-65.265" y1="-43.15" x2="-3.619" y2="-43.15" gradientTransform="matrix(1 0 0 1 35 35)">
		<stop  offset="0.309" style="stop-color:#21D789"/>
		<stop  offset="0.487" style="stop-color:#59A3B2"/>
		<stop  offset="0.767" style="stop-color:#B74AF7"/>
		<stop  offset="1" style="stop-color:#FF45ED"/>
	</linearGradient>
	<path class="st4" d="M-35-34.5v31.8l60.7,20.9l4.8-42.3L-35-34.5z"/>
	<path d="M21-21h-42v42h42V-21z"/>
	<path class="st5" d="M-0.6,13.6h-15.8v2.7h15.8C-0.6,16.3-0.6,13.6-0.6,13.6z"/>
	<path class="st5" d="M0.8-7.8c0-4.5,3.5-8.3,8.3-8.3c2.9,0,4.5,0.8,6.2,2.2l-2.2,2.7c-1.2-1-2.3-1.6-4.2-1.6
		c-2.6,0-4.5,2.2-4.5,4.9v0.1c0,2.9,2,5,4.8,5c1.3,0,2.4-0.3,3.3-1V-6H9v-3h6.8v6.8C14.3-0.8,12,0.3,9.1,0.3
		C4.2,0.3,0.8-3.1,0.8-7.8z"/>
	<path class="st5" d="M-16.5-15.9h6.2c5,0,8.4,3.4,8.4,7.7c0,4.4-3.4,7.9-8.4,7.9l-6.2,0.1V-15.9z M-13-12.7v9.5h2.7
		c2.8,0,4.8-1.9,4.8-4.6s-1.9-4.7-4.8-4.7L-13-12.7z"/>
</symbol>
<g>
	<defs>
		<rect id="SVGID_6_" width="70" height="70"/>
	</defs>
	<clipPath id="SVGID_7_">
		<use xlink:href="#SVGID_6_"  style="overflow:visible;"/>
	</clipPath>
	<g style="clip-path:url(#SVGID_7_);">
		
			<use xlink:href="#datagrip"  width="70" height="70" x="-35" y="-35" transform="matrix(1 0 0 1 35 35)" style="overflow:visible;"/>
	</g>
</g>
</svg>
