<?xml version="1.0" encoding="utf-8"?>
<!-- Generator: Adobe Illustrator 25.3.0, SVG Export Plug-In . SVG Version: 6.00 Build 0)  -->
<svg version="1.1" id="Layer_1" xmlns="http://www.w3.org/2000/svg" xmlns:xlink="http://www.w3.org/1999/xlink" x="0px" y="0px"
	 viewBox="0 0 255.7 226.5" style="enable-background:new 0 0 255.7 226.5;" xml:space="preserve">
<style type="text/css">
	.st0{fill:#CAC9C2;}
	.st1{fill:#FFFFFF;}
	.st2{fill:#5072AA;}
	.st3{fill:#4D6796;}
	.st4{fill:#CC4232;}
	.st5{fill:#B23F33;}
	.st6{fill:#ECB02A;}
	.st7{fill:#C79732;}
</style>
<path class="st0" d="M81.3,190.4l-44.9-77.8l44.9-77.8h89.9l44.9,77.8l-44.9,77.8H81.3"/>
<path class="st1" d="M127.8,148.1c-19.3,0-35-15.7-35-35c0-19.3,15.7-35,35-35c19.3,0,35,15.7,35,35
	C162.8,132.4,147.1,148.1,127.8,148.1"/>
<path class="st2" d="M198.2,8.7c-2.8-4.8-9.5-8.7-15-8.7H72.5c-5.5,0-12.3,3.9-15,8.7l-32.4,56c-0.3,3.6,0.4,7.4,2,10.2L49,112.3
	l39.1-67.6h123.6c2.9,0,6.2,1.1,9,2.9L198.2,8.7"/>
<path class="st3" d="M26.5,62.3l-1.4,2.5c-0.3,3.6,0.4,7.4,2,10.2L49,112.3l11.7-20.1L26.5,62.3"/>
<path class="st1" d="M75.3,28.8c-3.7,0-6.8-3-6.8-6.8c0-3.7,3-6.8,6.8-6.8c3.7,0,6.8,3,6.8,6.8C82.1,25.8,79,28.8,75.3,28.8
	 M186.1,22c0,3.5-2.7,6.3-6.2,6.3c-3.5,0-6.3-2.7-6.3-6.2c0-0.1,0-0.1,0-0.2c0-3.5,2.9-6.2,6.3-6.2C183.3,15.9,186,18.6,186.1,22z"
	/>
<g>
	<path class="st4" d="M253.6,104.6l-32.9-56.9c-2.8-1.7-6.1-2.8-9-2.8h-44.6l38.5,67.9l-61,107.8c-1.3,2.3-3.6,4.4-6.3,6h44.8
		c5.5,0,12.3-3.9,15-8.7l55.4-95.9C256.4,117.2,256.4,109.4,253.6,104.6"/>
	<path class="st5" d="M222.2,50.2l-1.5-2.6c-2.8-1.7-6.1-2.8-9-2.8h-44.6l11.6,20.4L222.2,50.2"/>
	<path class="st1" d="M179.8,209.9c-3.7,0-6.8-3-6.8-6.8c0-3.7,3-6.8,6.8-6.8c3.7,0,6.8,3,6.8,6.8
		C186.6,206.9,183.5,209.9,179.8,209.9 M232.4,119.9c-3.7,0-6.8-3-6.8-6.8c0-3.7,3-6.8,6.8-6.8c3.7,0,6.8,3,6.8,6.8
		C239.1,116.8,236.1,119.9,232.4,119.9"/>
</g>
<g>
	<path class="st6" d="M88.9,180.6L27.1,74.9c-1.6-2.8-2.3-6.5-2-10.2l-23,39.9c-2.8,4.8-2.8,12.6,0,17.3l55.4,95.9
		c2.8,4.8,9.5,8.7,15,8.7h65.9c2.6-1.6,4.9-3.7,6.3-6l22.6-39.9L88.9,180.6"/>
	<path class="st7" d="M134.6,226.5h3.8c2.6-1.6,4.9-3.7,6.3-6l22.6-39.9h-24L134.6,226.5"/>
	<path class="st1" d="M75.3,209.9c-3.7,0-6.8-3-6.8-6.8c0-3.7,3-6.8,6.8-6.8c3.7,0,6.8,3,6.8,6.8C82.1,206.9,79,209.9,75.3,209.9
		 M22.6,119.9c-3.7,0-6.8-3-6.8-6.8c0-3.7,3-6.8,6.8-6.8c3.7,0,6.8,3,6.8,6.8C29.4,116.8,26.4,119.9,22.6,119.9"/>
</g>
</svg>
