<?xml version="1.0" encoding="utf-8"?>
<!-- Generator: Adobe Illustrator 25.3.0, SVG Export Plug-In . SVG Version: 6.00 Build 0)  -->
<svg version="1.1" id="Layer_1" xmlns="http://www.w3.org/2000/svg" xmlns:xlink="http://www.w3.org/1999/xlink" x="0px" y="0px"
	 viewBox="0 0 512 512" style="enable-background:new 0 0 512 512;" xml:space="preserve">
<style type="text/css">
	.st0{fill:#00ACD7;}
</style>
<g>
	<path class="st0" d="M292.5,173.3l1.1,0.8c13.2,8.7,22.7,20.7,28.9,35.1c1.5,2.2,0.5,3.5-2.5,4.2l-5.1,1.3
		c-11.4,2.9-20.5,5.4-31.8,8.4l-6.4,1.7c-2.3,0.6-3,0.3-5.4-2.5l-0.3-0.4c-3.5-4-6.2-6.7-10.8-9l-0.9-0.4
		c-15.7-7.7-30.9-5.5-45.1,3.7c-17,11-25.7,27.2-25.4,47.4c0.2,19.9,14,36.4,33.7,39.1c17,2.2,31.2-3.7,42.4-16.5
		c2.2-2.7,4.2-5.7,6.7-9.2h-48.1c-5.2,0-6.5-3.2-4.7-7.5l0.9-2c3.2-7.5,8.2-18.2,11.4-24.3l0.7-1.3c0.9-1.5,2.6-3.5,6-3.5l80.2,0
		c3.6-11.4,9.4-22.2,17.2-32.4c18.2-23.9,40.1-36.4,69.8-41.6c25.4-4.5,49.4-2,71,12.7c19.7,13.5,31.9,31.7,35.1,55.6
		c4.2,33.7-5.5,61.1-28.7,84.5c-16.5,16.7-36.6,27.2-59.8,31.9c-6.7,1.2-13.5,1.5-19.9,2.2c-22.7-0.5-43.4-7-60.8-21.9
		c-12.3-10.6-20.7-23.6-24.9-38.8c-2.9,5.9-6.4,11.5-10.5,16.9c-17.9,23.7-41.4,38.4-71,42.4c-24.4,3.2-47.1-1.5-67.1-16.5
		c-18.4-14-28.9-32.4-31.7-55.3c-3.2-27.2,4.7-51.6,21.2-73c17.7-23.2,41.1-37.9,69.8-43.1C250.6,157.7,272.6,160.2,292.5,173.3
		L292.5,173.3z M411.1,209l-0.8,0.2c-23.2,5.2-38.1,19.9-43.6,43.4c-4.5,19.4,5,39.1,22.9,47.1c13.7,6,27.4,5.2,40.6-1.5
		c19.7-10.2,30.4-26.2,31.7-47.6c-0.2-3.2-0.2-5.7-0.7-8.2C456.7,217.9,434.5,204,411.1,209L411.1,209z M116.4,254.6
		c1,0,1.5,0.7,1.5,1.7l-0.5,6c0,1-1,1.7-1.7,1.7l-54.3-0.2c-1,0-1.2-0.7-0.7-1.5l3.5-6.2c0.5-0.7,1.5-1.5,2.5-1.5H116.4z
		 M121.9,231.6c1,0,1.5,0.7,1.2,1.5l-2,6c-0.2,1-1.2,1.5-2.2,1.5L1,240.9c-1,0-1.2-0.5-0.7-1.2l5.2-6.7c0.5-0.7,1.7-1.2,2.7-1.2
		H121.9z M134.9,208.7c1,0,1.2,0.7,0.7,1.5l-4.2,6.5c-0.5,0.7-1.7,1.5-2.5,1.5l-90.2-0.2c-1,0-1.2-0.5-0.7-1.2l5.2-6.7
		c0.5-0.7,1.7-1.2,2.7-1.2H134.9z"/>
</g>
</svg>
