<?xml version="1.0" encoding="utf-8"?>
<!-- Generator: Adobe Illustrator 25.3.0, SVG Export Plug-In . SVG Version: 6.00 Build 0)  -->
<svg version="1.1" id="katman_1" xmlns="http://www.w3.org/2000/svg" xmlns:xlink="http://www.w3.org/1999/xlink" x="0px" y="0px"
	 viewBox="0 0 70 70" style="enable-background:new 0 0 70 70;" xml:space="preserve">
<style type="text/css">
	.st0{fill:url(#SVGID_1_);}
	.st1{fill:#B74AF7;}
	.st2{fill:url(#SVGID_2_);}
	.st3{fill:url(#SVGID_3_);}
	.st4{fill:#FFFFFF;}
</style>
<symbol  id="goland" viewBox="-35 -35 70 70">
	
		<linearGradient id="SVGID_1_" gradientUnits="userSpaceOnUse" x1="-2.2273" y1="-31.4925" x2="-29.5683" y2="-8.3575" gradientTransform="matrix(1 0 0 1 35 35)">
		<stop  offset="0" style="stop-color:#087CFA"/>
		<stop  offset="2.300000e-02" style="stop-color:#0D7BFA"/>
		<stop  offset="0.373" style="stop-color:#5566F9"/>
		<stop  offset="0.663" style="stop-color:#8A57F8"/>
		<stop  offset="0.881" style="stop-color:#AB4EF7"/>
		<stop  offset="1" style="stop-color:#B74AF7"/>
	</linearGradient>
	<path class="st0" d="M26.7-7.9L35,10.6L20.7,35L3.5,7L26.7-7.9z"/>
	<path class="st1" d="M9.5,9l11.2,26l-22.1-7.6L9.5,9z"/>
	
		<linearGradient id="SVGID_2_" gradientUnits="userSpaceOnUse" x1="-41.6522" y1="-44.5576" x2="-25.0352" y2="-63.4626" gradientTransform="matrix(1 0 0 1 35 35)">
		<stop  offset="0" style="stop-color:#087CFA"/>
		<stop  offset="2.300000e-02" style="stop-color:#0D7BFA"/>
		<stop  offset="0.373" style="stop-color:#5566F9"/>
		<stop  offset="0.663" style="stop-color:#8A57F8"/>
		<stop  offset="0.881" style="stop-color:#AB4EF7"/>
		<stop  offset="1" style="stop-color:#B74AF7"/>
	</linearGradient>
	<path class="st2" d="M14.3-15.2L9.8-35h-25.2L-35-5l5.7,13.8L-35,21.4L14.3,2V-15.2z"/>
	
		<linearGradient id="SVGID_3_" gradientUnits="userSpaceOnUse" x1="-60.2916" y1="-8.8758" x2="-9.7966" y2="-41.3238" gradientTransform="matrix(1 0 0 1 35 35)">
		<stop  offset="0" style="stop-color:#087CFA"/>
		<stop  offset="0.102" style="stop-color:#1598D3"/>
		<stop  offset="0.225" style="stop-color:#23B6AA"/>
		<stop  offset="0.345" style="stop-color:#2DCC8B"/>
		<stop  offset="0.462" style="stop-color:#35DD74"/>
		<stop  offset="0.572" style="stop-color:#39E767"/>
		<stop  offset="0.67" style="stop-color:#3BEA62"/>
	</linearGradient>
	<path class="st3" d="M35-20.1L5.6-13.2L-35,21.4L-8.8,35L12,13.6L35-20.1z"/>
	<path d="M21-21h-42v42h42V-21z"/>
	<path class="st4" d="M-0.6,13.6h-15.8v2.7h15.8C-0.6,16.3-0.6,13.6-0.6,13.6z"/>
	<path class="st4" d="M-17-7.8c0-4.5,3.5-8.3,8.3-8.3c2.9,0,4.5,0.8,6.2,2.2l-2.2,2.7c-1.2-1-2.3-1.6-4.2-1.6
		c-2.6,0-4.5,2.2-4.5,4.9v0.1c0,2.9,2,5,4.8,5c1.3,0,2.4-0.3,3.3-1V-6h-3.5v-3H-2v6.8c-1.5,1.4-3.8,2.5-6.7,2.5
		C-13.6,0.3-17-3.1-17-7.8z"/>
	<path class="st4" d="M-0.4-7.8c0-4.5,3.5-8.3,8.4-8.3s8.4,3.6,8.4,8.1v0.1c0,4.5-3.5,8.2-8.4,8.2C3.1,0.3-0.4-3.3-0.4-7.8z
		 M12.8-7.8c0-2.8-2-5-4.8-5s-4.7,2.2-4.7,4.9v0.1c0,2.7,2,5,4.8,5C10.8-2.8,12.8-5,12.8-7.8z"/>
</symbol>
<g>
	<defs>
		<rect id="SVGID_4_" width="70" height="70"/>
	</defs>
	<clipPath id="SVGID_5_">
		<use xlink:href="#SVGID_4_"  style="overflow:visible;"/>
	</clipPath>
	<g style="clip-path:url(#SVGID_5_);">
		
			<use xlink:href="#goland"  width="70" height="70" x="-35" y="-35" transform="matrix(1 0 0 1 35 35)" style="overflow:visible;"/>
	</g>
</g>
</svg>
