<svg xmlns="http://www.w3.org/2000/svg" preserveAspectRatio="xMinYMin meet" width="255" height="360"><rect id="backgroundrect" width="100%" height="100%" x="0" y="0" fill="none" stroke="none"/><g class="currentLayer" style=""><title>Layer 1</title><path d="M255.11000000715256,70.766 l-23.241,260.36 l-104.47,28.962 l-104.182,-28.922 L7.152557435219364e-9,70.766 h255.11 z" fill="#E44D26" id="svg_1" class=""/><path d="M127.55500000715256,337.95 l84.417,-23.403 l19.86,-222.49 H127.55500000715256 V337.95 z" fill="#F16529" id="svg_2" class=""/><path d="M82.37500000715255,155.932 H127.55500000715256 v-31.937 H47.47200000715256 l0.7640000000000001,8.568 l7.85,88.01 H127.55500000715256 v-31.937 H85.29400000715256 l-2.919,-32.704 zM89.57300000715256,236.542 h-32.06 l4.474,50.146 l65.421,18.16 l0.14700000000000002,-0.04000000000000001 V271.58 l-0.14,0.037000000000000005 l-35.568,-9.604 l-2.274,-25.471 z" fill="#EBEBEB" id="svg_3" class=""/><path d="M23.735000007152557,0 h16.23 v16.035 h14.847 V0 h16.231 v48.558 h-16.23 v-16.26 H39.96600000715256 v16.26 h-16.23 V0 zM92.38500000715256,16.103 H78.09900000715255 V0 h44.814 v16.103 h-14.295 v32.455 h-16.23 V16.103 h-0.0010000000000000002 zM130.02500000715256,0 h16.923000000000002 l10.41,17.062 L167.75800000715256,0 h16.93 v48.558 h-16.164 V24.49 l-11.166,17.265 h-0.28 L145.90500000715255,24.49 v24.068 h-15.88 V0 zM192.76500000715257,0 h16.235 v32.508 h22.824 v16.05 h-39.06 V0 z" id="svg_4" class=""/><path d="M127.44500000715256,220.573 h39.327 l-3.708,41.42 l-35.62,9.614 v33.226 l65.473,-18.145 l0.48000000000000004,-5.396 l7.506,-84.08 l0.779,-8.576 H127.44500000715256 v31.937 zM127.44500000715256,155.854 v0.07800000000000001 h77.143 l0.6400000000000001,-7.178 l1.456,-16.191 l0.7630000000000001,-8.568 H127.44500000715256 v31.86 z" fill="#FFF" id="svg_5" class=""/></g></svg>