<?xml version="1.0" encoding="utf-8"?>
<!-- Generator: Adobe Illustrator 25.3.0, SVG Export Plug-In . SVG Version: 6.00 Build 0)  -->
<svg version="1.1" id="Layer_1" xmlns="http://www.w3.org/2000/svg" xmlns:xlink="http://www.w3.org/1999/xlink" x="0px" y="0px"
	 viewBox="0 0 32 32" style="enable-background:new 0 0 32 32;" xml:space="preserve">
<style type="text/css">
	.st0{fill:#44A8B3;}
</style>
<path class="st0" d="M9,13.7c0.9-3.7,3.3-5.6,7-5.6c5.6,0,6.3,4.2,9.1,4.9c1.9,0.5,3.5-0.2,4.9-2.1c-0.9,3.7-3.3,5.6-7,5.6
	c-5.6,0-6.3-4.2-9.1-4.9C12,11.1,10.4,11.8,9,13.7z M2,22.1c0.9-3.7,3.3-5.6,7-5.6c5.6,0,6.3,4.2,9.1,4.9c1.9,0.5,3.5-0.2,4.9-2.1
	c-0.9,3.7-3.3,5.6-7,5.6c-5.6,0-6.3-4.2-9.1-4.9C5,19.5,3.4,20.2,2,22.1z"/>
</svg>
